<svg width="47" height="31" viewBox="0 0 47 31" fill="none" xmlns="http://www.w3.org/2000/svg">
<path d="M11.5003 25.5918C5.15933 25.5918 0 20.433 0 14.0918C0 7.74997 5.15933 2.5918 11.5003 2.5918C17.842 2.5918 23 7.75062 23 14.0918C23 20.4323 17.842 25.5918 11.5003 25.5918ZM11.5003 4.19441C6.04297 4.19441 1.60388 8.63428 1.60388 14.0918C1.60388 19.5493 6.04297 23.9892 11.5003 23.9892C16.957 23.9892 21.3968 19.5493 21.3968 14.0918C21.3968 8.63428 16.957 4.19441 11.5003 4.19441Z" fill="#3622E3"/>
<path d="M45.6076 4.97377C44.8368 4.97377 44.214 5.59643 44.214 6.36671V7.62689L41.8802 1.00054C41.6123 0.239278 40.777 -0.159722 40.0158 0.105848C39.252 0.37722 38.8534 1.21131 39.1206 1.9745L41.6142 9.05272L36.2136 0.729151C35.7306 -0.0114795 34.7402 -0.222901 33.9976 0.257317C33.2557 0.740757 33.0451 1.73407 33.5249 2.47728L37.8256 9.09913L42.8249 11.8992C43.0948 12.0507 43.1901 12.3904 43.0407 12.6605C42.9376 12.8403 42.7483 12.9441 42.5525 12.9441C42.4617 12.9441 42.3683 12.9215 42.282 12.8738L39.4562 11.2972C38.5417 10.7525 36.562 9.88166 34.7292 10.1917C33.2094 10.4502 31.8293 11.2282 30.8549 12.4304C30.303 13.1098 30.4073 14.1089 31.0867 14.6593C31.7655 15.2105 32.7624 15.1067 33.3137 14.4273C33.7967 13.8356 34.4748 13.4424 35.2277 13.3218C36.0443 13.1929 36.8563 13.3876 37.5261 13.8736C38.1907 14.357 38.6331 15.0744 38.7639 15.8879C39.0318 17.5696 37.8829 19.1586 36.202 19.4274C34.527 19.6981 32.9299 18.5449 32.6626 16.8606C32.5235 15.9981 31.7088 15.4161 30.8485 15.5469C29.9848 15.6823 29.3975 16.4964 29.5347 17.3614C29.8348 19.2365 30.9476 20.7784 32.4507 21.7015L38.6421 26.3934V30.8823H47V6.36608C47.0019 5.59645 46.3779 4.97377 45.6076 4.97377Z" fill="#3622E3"/>
<path d="M23 15.0935C23 14.7178 23.4511 14.5918 23.601 14.5918H30.7265C30.8752 14.5918 31 14.8172 31 15.0935C31 15.3687 30.8758 15.5918 30.7265 15.5918H23.6017C23.4511 15.5929 23 15.4438 23 15.0935Z" fill="#3622E3"/>
</svg>
