<svg width="145" height="145" viewBox="0 0 145 145" fill="none" xmlns="http://www.w3.org/2000/svg">
<g clip-path="url(#clip0_84_45)">
<path d="M145 73.0717C145 92.3345 137.362 110.808 123.765 124.429C110.169 138.05 91.7282 145.702 72.5 145.702C53.2718 145.702 34.8311 138.05 21.2348 124.429C7.63837 110.808 0 92.3345 0 73.0717C0 72.3012 0.305535 71.5622 0.849391 71.0174C1.39325 70.4725 2.13087 70.1665 2.9 70.1665C3.66913 70.1665 4.40675 70.4725 4.95061 71.0174C5.49446 71.5622 5.8 72.3012 5.8 73.0717C5.77903 88.4317 11.0337 103.331 20.6817 115.269C30.3297 127.207 43.7837 135.456 58.7849 138.631C73.7861 141.806 89.421 139.715 103.065 132.707C116.709 125.7 127.53 114.203 133.714 100.147C139.897 86.0917 141.064 70.3329 137.021 55.5167C132.977 40.7004 123.969 27.7289 111.508 18.7799C99.0462 9.83085 83.891 5.4492 68.5863 6.37055C53.2815 7.2919 38.7591 13.4602 27.4572 23.8397L39.8286 36.2334C48.799 28.1527 60.4364 23.6823 72.5 23.6829C82.2506 23.6829 91.7823 26.5795 99.8896 32.0064C107.997 37.4333 114.316 45.1468 118.047 54.1714C121.779 63.196 122.755 73.1265 120.853 82.707C118.95 92.2875 114.255 101.088 107.36 107.995C100.466 114.902 91.6812 119.606 82.118 121.512C72.5547 123.417 62.6421 122.439 53.6337 118.701C44.6253 114.963 36.9257 108.633 31.5086 100.511C26.0914 92.3887 23.2 82.8399 23.2 73.0717C23.2 72.3012 23.5055 71.5622 24.0494 71.0174C24.5932 70.4725 25.3309 70.1665 26.1 70.1665C26.8691 70.1665 27.6068 70.4725 28.1506 71.0174C28.6945 71.5622 29 72.3012 29 73.0717C29 81.6907 31.5512 90.1161 36.3311 97.2825C41.1109 104.449 47.9047 110.035 55.8533 113.333C63.8019 116.631 72.5483 117.494 80.9864 115.813C89.4246 114.131 97.1756 109.981 103.259 103.886C109.343 97.7917 113.486 90.0268 115.164 81.5734C116.843 73.12 115.981 64.3579 112.689 56.395C109.396 48.432 103.821 41.626 96.6673 36.8376C89.5138 32.0491 81.1035 29.4933 72.5 29.4933C61.9736 29.4928 51.8109 33.3514 43.9292 40.3414L56.2948 52.7351C60.9175 49.0818 66.6412 47.1088 72.529 47.1392C78.4169 47.1695 84.12 49.2013 88.7049 52.902C93.2899 56.6027 96.4849 61.7531 97.7671 67.5101C99.0493 73.2671 98.3427 79.2896 95.7629 84.5918C93.1831 89.894 88.883 94.1617 83.5664 96.6965C78.2499 99.2313 72.2318 99.8828 66.4975 98.5446C60.7631 97.2063 55.6521 93.9575 52.001 89.3299C48.35 84.7023 46.3752 78.9702 46.4 73.0717C46.4 72.3012 46.7055 71.5622 47.2494 71.0174C47.7932 70.4725 48.5309 70.1665 49.3 70.1665C50.0691 70.1665 50.8068 70.4725 51.3506 71.0174C51.8945 71.5622 52.2 72.3012 52.2 73.0717C52.1534 77.7087 53.6739 82.2252 56.5145 85.8867C59.3551 89.5482 63.3485 92.1393 67.8455 93.2387C72.3424 94.3381 77.0784 93.8812 81.2832 91.9422C85.4881 90.0032 88.9145 86.6961 91.0053 82.5588C93.0961 78.4216 93.7283 73.6974 92.7991 69.1545C91.8699 64.6116 89.434 60.5172 85.8874 57.5371C82.3409 54.5571 77.8923 52.8666 73.265 52.7406C68.6378 52.6146 64.1041 54.0604 60.4012 56.8431L74.5532 71.0148C74.8228 71.2849 75.0367 71.6056 75.1826 71.9585C75.3286 72.3114 75.4037 72.6897 75.4037 73.0717C75.4037 73.4537 75.3286 73.8319 75.1826 74.1849C75.0367 74.5378 74.8228 74.8585 74.5532 75.1286C74.2836 75.3987 73.9635 75.613 73.6112 75.7591C73.2589 75.9053 72.8813 75.9806 72.5 75.9806C72.1187 75.9806 71.7411 75.9053 71.3888 75.7591C71.0365 75.613 70.7164 75.3987 70.4468 75.1286L21.2048 25.792C20.6611 25.2472 20.3557 24.5084 20.3557 23.7381C20.3557 22.9677 20.6611 22.2289 21.2048 21.6841C31.3519 11.5342 44.2741 4.62481 58.339 1.82858C72.4039 -0.967643 86.9806 0.474782 100.228 5.97365C113.475 11.4725 124.798 20.7811 132.767 32.7236C140.735 44.6661 144.992 58.7066 145 73.0717Z" fill="white"/>
</g>
<defs>
<clipPath id="clip0_84_45">
<rect width="145" height="145" fill="white"/>
</clipPath>
</defs>
</svg>
